<?xml version="1.0" standalone="no"?>
<!DOCTYPE svg PUBLIC "-//W3C//DTD SVG 20010904//EN"
 "http://www.w3.org/TR/2001/REC-SVG-20010904/DTD/svg10.dtd">
<svg version="1.0" xmlns="http://www.w3.org/2000/svg"
 width="549.000000pt" height="295.000000pt" viewBox="0 0 549.000000 295.000000"
 preserveAspectRatio="xMidYMid meet">

<g transform="translate(0.000000,295.000000) scale(0.100000,-0.100000)"
fill="#000000" stroke="none">
<path d="M0 1475 l0 -1475 2745 0 2745 0 0 1475 0 1475 -2745 0 -2745 0 0
-1475z m2698 1168 c-10 -2 -28 -2 -40 0 -13 2 -5 4 17 4 22 1 32 -1 23 -4z
m52 -3 c12 -8 11 -10 -7 -10 -13 0 -23 5 -23 10 0 13 11 13 30 0z m75 -20 c3
-5 1 -10 -4 -10 -6 0 -11 5 -11 10 0 6 2 10 4 10 3 0 8 -4 11 -10z m135 -43
c188 -86 329 -254 379 -447 29 -114 35 -195 15 -214 -8 -9 -20 -16 -25 -16 -5
0 -9 -7 -9 -15 0 -8 4 -15 9 -15 5 0 16 -7 24 -15 16 -16 10 -70 -19 -159 -12
-37 -13 -51 -3 -56 17 -11 3 -90 -28 -159 -30 -69 -27 -114 16 -222 30 -75 53
-182 44 -206 -11 -27 -21 -10 -37 57 -8 38 -27 87 -41 110 -26 41 -45 52 -45
25 0 -49 -109 -315 -117 -284 -2 9 12 81 32 160 34 134 50 278 32 295 -3 4
-28 -13 -54 -36 -143 -126 -317 -143 -508 -49 -74 36 -161 117 -202 187 -23
39 -63 142 -63 162 0 4 64 10 143 13 78 4 171 11 207 17 146 24 305 86 423
164 90 60 91 61 84 173 -10 153 -56 269 -152 385 -46 57 -133 126 -179 144 -9
3 -16 13 -16 21 0 17 21 12 90 -20z m-936 0 c19 -14 19 -48 2 -88 -9 -20 9
-25 114 -34 41 -3 100 -8 130 -12 l55 -6 -30 -13 c-18 -8 -71 -13 -137 -14
-85 0 -108 -3 -108 -14 0 -37 66 -230 115 -335 30 -65 55 -121 55 -125 0 -31
-84 94 -151 224 -39 75 -44 82 -47 56 -2 -16 1 -65 7 -109 6 -44 11 -88 11
-99 0 -25 -19 -23 -29 5 -8 21 -38 251 -43 327 -1 19 -3 38 -5 41 -2 4 -42 -6
-90 -22 -47 -16 -96 -29 -107 -29 -20 1 -20 1 3 20 13 11 30 20 37 20 20 0
148 65 163 83 8 10 9 17 1 22 -15 9 -12 68 6 93 18 26 24 27 48 9z m766 -322
c66 -34 135 -129 128 -177 -3 -23 -59 -48 -173 -80 -76 -20 -298 -35 -358 -24
l-36 7 16 52 c19 65 73 147 118 182 94 71 213 87 305 40z m136 -1685 c53 -26
82 -64 93 -124 18 -96 -61 -160 -209 -169 -51 -3 -55 -5 -56 -27 0 -40 15
-101 41 -158 l24 -53 -28 20 c-75 54 -143 160 -157 246 -3 22 -8 43 -10 47 -6
10 20 97 39 134 47 91 168 129 263 84z m2242 -150 c-3 -36 -1 -40 19 -40 16 0
23 -6 23 -20 0 -13 -7 -20 -20 -20 -18 0 -20 -7 -20 -70 0 -38 -1 -73 -1 -77
-1 -5 8 -12 20 -18 30 -14 26 -35 -7 -35 -51 0 -65 28 -63 124 2 81 1 84 -19
79 -15 -4 -20 -1 -20 16 0 14 6 21 20 21 17 0 20 7 20 40 0 36 2 40 26 40 24
0 26 -3 22 -40z m-1947 -59 c24 -24 29 -38 29 -76 l0 -47 -80 4 c-89 3 -99 -5
-58 -49 25 -26 42 -28 80 -9 19 10 29 11 37 3 17 -17 13 -25 -16 -40 -31 -16
-91 -14 -123 3 -38 21 -58 113 -38 172 25 71 116 91 169 39z m159 19 c0 -7 6
-7 19 0 24 12 71 13 90 1 26 -17 -6 -42 -43 -36 -57 11 -70 -10 -74 -114 -4
-82 -6 -91 -23 -91 -18 0 -19 9 -19 125 l0 125 25 0 c14 0 25 -5 25 -10z m220
0 c0 -7 6 -7 19 0 28 15 73 12 99 -6 20 -14 24 -14 44 0 25 18 80 21 107 6 30
-16 51 -83 51 -165 0 -73 -1 -75 -25 -75 -25 0 -25 2 -25 78 0 94 -14 126 -56
130 -48 5 -57 -15 -55 -118 l2 -90 -25 0 c-26 0 -26 1 -26 78 0 42 -6 88 -13
102 -14 28 -46 37 -76 20 -19 -10 -21 -20 -21 -105 0 -95 0 -95 -25 -95 l-25
0 0 125 0 125 25 0 c14 0 25 -5 25 -10z m533 1 c34 -13 47 -58 47 -157 0 -83
0 -84 -25 -84 -14 0 -25 5 -25 11 0 8 -4 8 -15 -1 -8 -7 -31 -13 -52 -14 -29
-1 -44 4 -65 25 -35 34 -35 63 -3 94 25 26 34 28 98 25 33 -1 37 1 37 22 0 13
-5 29 -12 36 -15 15 -84 16 -93 2 -7 -12 -35 5 -35 22 0 23 97 36 143 19z
m177 0 c0 -5 12 -5 28 1 16 6 44 8 64 4 52 -9 64 -41 60 -154 -3 -90 -4 -92
-28 -92 -25 0 -25 0 -23 90 2 96 -7 120 -44 120 -45 0 -57 -27 -57 -122 0 -87
0 -88 -25 -88 l-25 0 0 125 0 125 25 0 c14 0 25 -4 25 -9z m383 -2 c32 -15 57
-60 57 -104 l0 -36 -85 3 c-81 3 -85 2 -79 -17 15 -48 47 -62 97 -41 26 10 38
11 46 3 17 -17 14 -24 -20 -38 -59 -24 -116 -13 -149 28 -39 50 -18 182 32
203 32 12 73 12 101 -1z m177 1 c0 -7 6 -7 19 0 32 17 78 12 105 -12 29 -27
29 -26 27 -140 -1 -87 -1 -88 -27 -88 l-25 0 2 90 c2 96 -7 120 -44 120 -45 0
-57 -27 -57 -122 0 -87 0 -88 -25 -88 l-25 0 0 125 0 125 25 0 c14 0 25 -5 25
-10z m553 -1 c31 -14 46 -41 54 -95 l6 -46 -86 4 c-83 3 -87 2 -81 -17 15 -47
57 -64 103 -41 21 11 31 12 40 3 17 -17 14 -23 -20 -37 -126 -52 -219 65 -153
193 23 43 85 60 137 36z"/>
<path d="M3125 1713 c-27 -19 -78 -47 -112 -64 -35 -16 -63 -33 -63 -37 0 -4
25 -24 56 -45 l55 -39 26 29 c27 30 96 169 91 182 -2 5 -25 -7 -53 -26z"/>
<path d="M3271 1554 c-31 -61 -36 -84 -12 -70 11 7 53 115 49 127 -2 5 -18
-21 -37 -57z"/>
<path d="M2835 1590 c-44 -10 -100 -19 -124 -19 l-44 -1 23 -25 c41 -44 136
-85 196 -85 47 0 134 24 134 37 0 2 -14 16 -30 30 -17 14 -37 38 -46 54 -8 16
-18 28 -22 28 -4 -1 -43 -9 -87 -19z"/>
<path d="M2829 476 c-25 -12 -66 -84 -71 -126 -3 -22 1 -25 34 -28 66 -6 148
52 148 104 0 45 -64 74 -111 50z"/>
<path d="M3113 342 c-6 -4 -15 -20 -18 -35 l-7 -27 60 0 c56 0 61 2 57 21 -2
12 -9 27 -16 35 -12 15 -56 19 -76 6z"/>
<path d="M4030 236 c-14 -14 -12 -42 3 -53 17 -14 78 -8 88 9 5 7 9 22 9 33 0
17 -7 20 -45 20 -25 0 -50 -4 -55 -9z"/>
<path d="M4602 338 c-5 -7 -12 -22 -14 -33 -3 -18 3 -20 55 -23 61 -3 70 6 47
49 -12 22 -71 27 -88 7z"/>
<path d="M5326 328 c-28 -40 -21 -48 44 -48 53 0 60 2 60 19 0 49 -76 70 -104
29z"/>
</g>
</svg>
