<?xml version="1.0" standalone="no"?>
<!DOCTYPE svg PUBLIC "-//W3C//DTD SVG 20010904//EN"
 "http://www.w3.org/TR/2001/REC-SVG-20010904/DTD/svg10.dtd">
<svg version="1.0" xmlns="http://www.w3.org/2000/svg"
 width="138.000000pt" height="50.000000pt" viewBox="0 0 138.000000 50.000000"
 preserveAspectRatio="xMidYMid meet">

<g transform="translate(0.000000,50.000000) scale(0.100000,-0.100000)"
fill="#000000" stroke="none">
<path d="M517 463 c-4 -3 -2 -12 4 -19 18 -22 2 -52 -25 -47 -18 4 -31 -4 -56
-35 -18 -23 -39 -43 -47 -46 -16 -6 -15 -5 3 62 6 20 3 22 -27 22 -28 0 -42
-9 -77 -47 -45 -50 -48 -46 -27 25 12 36 -8 24 -40 -25 -39 -60 -63 -71 -41
-18 18 42 20 55 8 55 -12 0 -42 -67 -42 -95 0 -31 16 -32 47 -3 21 19 23 20
23 4 0 -15 5 -17 27 -12 17 5 29 3 34 -6 6 -10 15 -7 38 10 25 18 31 19 31 7
0 -17 18 -19 39 -6 10 7 19 4 27 -7 11 -16 15 -15 38 7 21 19 26 21 26 8 0
-25 17 -29 44 -12 21 14 24 14 29 0 9 -23 42 -18 77 11 l31 27 -7 -27 c-10
-40 8 -31 44 24 21 32 39 50 52 50 11 0 20 7 20 15 0 22 -20 18 -47 -7 -19
-17 -23 -19 -17 -5 10 28 -9 19 -39 -18 -32 -40 -87 -74 -87 -53 1 7 15 22 33
33 41 26 49 65 14 65 -17 0 -37 -16 -67 -52 -24 -28 -46 -46 -48 -40 -2 6 11
43 27 82 17 40 31 74 31 76 0 7 -46 4 -53 -3z m-154 -89 c7 -7 -44 -74 -56
-74 -12 0 2 41 21 63 16 18 25 21 35 11z m137 -4 c0 -15 -59 -77 -60 -62 0 23
30 72 45 72 8 0 15 -4 15 -10z m124 -4 c-6 -16 -34 -30 -34 -18 0 5 5 13 12
20 16 16 29 15 22 -2z"/>
<path d="M1060 454 c0 -8 4 -14 10 -14 14 0 -25 -79 -54 -108 -33 -33 -41 -24
-22 23 9 21 16 38 16 40 0 1 -16 2 -35 3 -26 1 -41 -5 -54 -21 -11 -12 -31
-35 -45 -52 l-26 -30 7 30 c16 70 1 93 -36 54 -18 -19 -21 -20 -21 -6 0 33
-18 17 -34 -30 -29 -85 -17 -98 27 -28 40 62 51 67 42 17 -8 -49 0 -69 21 -51
11 9 18 8 29 -1 13 -11 21 -8 46 16 19 18 28 23 24 12 -10 -26 21 -34 45 -13
18 16 20 16 20 2 0 -25 19 -30 45 -13 20 13 24 13 29 1 7 -19 30 -19 46 0 11
13 14 13 26 -2 12 -17 15 -16 43 11 30 28 31 29 31 8 0 -12 6 -22 13 -22 16 0
87 69 87 84 0 5 -16 -5 -35 -24 -42 -40 -52 -35 -31 15 9 21 16 38 16 40 0 1
-15 3 -32 3 -28 1 -40 -7 -80 -51 -50 -56 -65 -59 -47 -9 18 53 5 56 -29 8
-31 -43 -52 -58 -52 -37 0 5 14 41 30 79 17 39 30 73 30 75 0 3 -11 5 -25 5
-15 0 -25 -6 -25 -14z m-90 -82 c0 -4 -13 -23 -30 -42 -22 -27 -29 -31 -30
-17 0 24 29 67 46 67 8 0 14 -4 14 -8z m280 -2 c0 -15 -59 -77 -60 -62 0 23
30 72 45 72 8 0 15 -4 15 -10z"/>
<path d="M103 433 c-52 -25 -88 -96 -72 -141 10 -26 39 -29 74 -6 35 23 31 38
-4 20 -23 -12 -31 -13 -39 -3 -16 19 -2 65 29 98 25 26 32 29 45 19 10 -9 18
-10 25 -3 21 21 -23 33 -58 16z"/>
<path d="M1154 426 c-10 -8 -15 -18 -11 -22 4 -4 15 0 24 9 22 21 12 31 -13
13z"/>
<path d="M1150 204 c-14 -2 -153 -8 -310 -14 -331 -12 -664 -28 -767 -36 l-73
-6 0 -74 0 -74 690 0 690 0 0 105 0 105 -102 -1 c-57 -1 -114 -3 -128 -5z"/>
</g>
</svg>
