<?xml version="1.0" standalone="no"?>
<!DOCTYPE svg PUBLIC "-//W3C//DTD SVG 20010904//EN"
 "http://www.w3.org/TR/2001/REC-SVG-20010904/DTD/svg10.dtd">
<svg version="1.0" xmlns="http://www.w3.org/2000/svg"
 width="469.000000pt" height="297.000000pt" viewBox="0 0 469.000000 297.000000"
 preserveAspectRatio="xMidYMid meet">

<g transform="translate(0.000000,297.000000) scale(0.100000,-0.100000)"
fill="#000000" stroke="none">
<path d="M0 1485 l0 -1485 2345 0 2345 0 0 1485 0 1485 -2345 0 -2345 0 0
-1485z m4680 420 l0 -1055 -1288 0 -1289 0 -11 38 c-15 48 -67 103 -125 131
-96 47 -266 35 -332 -22 -30 -25 -45 -79 -34 -119 l7 -28 -121 0 -122 1 -20
41 c-36 76 -87 92 -230 74 -16 -2 -70 -7 -120 -11 -236 -17 -286 -30 -305 -81
l-10 -24 -335 0 -335 0 0 1055 0 1055 2335 0 2335 0 0 -1055z m-3358 -1180
c32 -87 55 -162 50 -166 -10 -9 -500 -105 -505 -99 -3 3 -27 92 -55 198 -32
123 -46 192 -38 193 6 0 99 8 206 19 107 10 215 17 240 17 l45 -2 57 -160z
m482 54 c97 -13 126 -29 126 -73 0 -37 -65 -86 -115 -86 -56 0 -127 60 -140
120 -12 55 -8 56 129 39z m746 -164 c0 -63 -4 -105 -10 -105 -6 0 -10 42 -10
105 0 63 4 105 10 105 6 0 10 -42 10 -105z m280 75 c0 -21 5 -30 18 -31 16 -1
16 -2 0 -6 -15 -4 -18 -16 -18 -74 0 -39 -4 -69 -10 -69 -6 0 -10 30 -10 70 0
60 -3 70 -17 71 -17 1 -17 2 0 6 11 3 17 14 17 34 0 16 5 29 10 29 6 0 10 -13
10 -30z m308 19 c-10 -5 -18 -16 -18 -24 0 -8 8 -19 18 -24 16 -10 16 -10 0
-11 -15 0 -18 -10 -18 -70 0 -40 -4 -70 -10 -70 -6 0 -10 30 -10 70 0 49 -4
70 -12 71 -10 0 -10 2 0 6 6 2 12 15 12 27 0 28 8 36 34 36 19 -1 19 -2 4 -11z
m-665 -71 c41 -48 5 -128 -59 -128 -18 0 -36 5 -39 10 -13 22 -25 8 -25 -30 0
-22 -4 -40 -10 -40 -6 0 -10 42 -10 105 0 63 4 105 10 105 6 0 10 -4 10 -9 0
-6 12 -3 28 5 33 17 71 10 95 -18z m250 18 c15 0 17 -11 17 -76 0 -51 -3 -70
-10 -60 -7 12 -12 12 -22 2 -19 -19 -75 -15 -98 8 -26 26 -27 91 -2 112 25 22
44 28 72 21 14 -3 33 -6 43 -7z m300 0 c15 0 17 -11 17 -76 0 -51 -3 -70 -10
-60 -7 12 -12 12 -22 2 -19 -19 -75 -15 -98 8 -26 26 -27 91 -2 112 25 22 44
28 72 21 14 -3 33 -6 43 -7z m290 -13 c10 -10 17 -31 17 -55 0 -49 -28 -78
-75 -78 -47 0 -75 29 -75 78 0 72 78 104 133 55z m117 21 c0 -3 -9 -13 -21
-23 -15 -12 -23 -34 -29 -76 l-7 -60 -2 77 c-1 63 2 76 13 72 8 -3 17 -1 21 5
7 12 25 15 25 5z m136 -8 c17 -12 22 -12 39 0 25 18 44 18 67 -3 14 -12 18
-31 18 -80 0 -84 -18 -81 -22 5 -3 60 -5 67 -24 70 -36 5 -54 -23 -54 -84 0
-30 -4 -54 -10 -54 -5 0 -10 23 -10 51 0 59 -13 89 -40 89 -29 0 -50 -39 -50
-92 0 -27 -4 -48 -10 -48 -6 0 -10 32 -10 75 0 43 4 75 10 75 6 0 10 -5 10
-11 0 -5 10 -3 22 5 28 20 38 20 64 2z m292 0 c21 -1 22 -5 22 -76 0 -51 -3
-70 -10 -60 -7 12 -12 12 -22 2 -19 -19 -75 -15 -98 8 -52 52 -3 152 65 133
11 -3 30 -6 43 -7z m-2377 -181 l29 -16 -20 -39 c-11 -21 -24 -41 -29 -44 -5
-3 -85 -26 -177 -51 l-169 -44 -68 46 c-37 25 -64 50 -60 54 19 19 71 13 105
-13 21 -16 39 -23 49 -18 7 4 73 22 144 40 72 18 133 36 138 40 4 3 -4 12 -18
20 l-25 13 23 13 c30 17 43 16 78 -1z m1239 -160 c0 -63 -4 -105 -10 -105 -5
0 -10 5 -10 10 0 7 -6 7 -19 0 -52 -27 -121 11 -121 68 0 57 69 98 115 68 l25
-16 0 40 c0 22 5 40 10 40 6 0 10 -42 10 -105z m666 49 c13 -10 13 -12 -1 -18
-11 -4 -15 -23 -17 -73 l-2 -68 -3 65 c-3 43 -9 69 -19 76 -13 10 -13 12 1 18
8 3 16 18 16 33 2 27 2 27 6 3 2 -14 11 -30 19 -36z m72 45 c-2 -6 -8 -10 -13
-10 -5 0 -11 4 -13 10 -2 6 4 11 13 11 9 0 15 -5 13 -11z m-966 -59 c14 -11
28 -29 31 -40 5 -19 0 -20 -64 -20 -72 0 -83 -8 -56 -42 21 -27 52 -30 80 -8
14 11 28 16 31 11 10 -15 -35 -41 -70 -41 -56 0 -95 77 -61 121 32 41 73 48
109 19z m573 8 c14 -6 25 -17 25 -24 0 -10 -7 -9 -29 4 -39 22 -82 8 -95 -31
-12 -34 -1 -56 37 -75 22 -11 31 -10 57 3 16 8 30 11 30 6 0 -16 -35 -31 -70
-31 -37 0 -80 39 -80 72 0 42 43 85 87 87 7 1 24 -4 38 -11z m183 -4 c12 -8
22 -10 22 -5 0 6 5 11 10 11 6 0 10 -32 10 -75 0 -43 -4 -75 -10 -75 -5 0 -10
5 -10 10 0 7 -6 7 -19 0 -71 -38 -156 49 -108 111 30 38 70 48 105 23z m520 0
c12 -8 22 -10 22 -5 0 6 5 11 10 11 6 0 10 -32 10 -75 0 -43 -4 -75 -10 -75
-5 0 -10 5 -10 10 0 7 -6 7 -19 0 -71 -38 -156 49 -108 111 30 38 70 48 105
23z m-982 -81 c7 -44 37 -60 70 -38 21 13 24 23 24 70 0 30 5 55 10 55 6 0 10
-24 10 -53 0 -68 -19 -97 -65 -97 -51 0 -65 21 -64 93 1 34 4 49 6 32 2 -16 6
-45 9 -62z m661 -25 c-2 -24 -4 -7 -4 37 0 44 2 63 4 43 2 -21 2 -57 0 -80z
m83 60 l23 -53 24 53 c13 28 29 52 34 52 13 0 13 1 -24 -79 l-34 -72 -31 70
c-35 78 -36 81 -23 81 5 0 19 -24 31 -52z"/>
<path d="M47 2310 c1 -333 2 -790 2 -1016 l1 -410 98 17 c262 47 598 137 819
220 271 101 479 219 620 352 l51 48 39 -25 c94 -63 239 -69 349 -17 109 52
165 130 172 239 4 52 0 71 -22 116 -48 97 -152 164 -271 174 l-62 5 -7 73 c-9
96 -46 219 -99 324 -47 96 -38 92 -165 71 -81 -14 -195 -4 -293 25 -173 51
-298 183 -316 332 -3 28 -9 56 -13 63 -6 9 -107 12 -457 13 l-448 1 2 -605z
m1901 -395 c20 -9 48 -26 61 -38 30 -27 60 -93 61 -129 l0 -28 -155 0 c-173 0
-182 -4 -126 -61 25 -24 38 -29 78 -29 29 0 58 7 72 16 21 15 26 15 62 -1 38
-18 39 -19 22 -38 -51 -57 -172 -74 -251 -36 -79 39 -122 144 -93 231 14 41
64 96 106 114 41 18 118 17 163 -1z"/>
<path d="M1796 1829 c-50 -39 -36 -49 74 -49 80 0 100 3 100 14 0 28 -50 56
-100 56 -33 0 -55 -6 -74 -21z"/>
<path d="M3300 2870 c69 -28 183 -79 255 -114 l130 -64 27 23 c74 63 200 97
304 84 198 -25 342 -210 305 -391 -12 -54 -49 -124 -85 -160 -16 -17 -16 -20
12 -60 68 -100 124 -251 140 -382 33 -261 -51 -561 -231 -828 l-66 -98 275 0
274 0 0 1020 0 1020 -732 0 -733 0 125 -50z"/>
<path d="M3245 2082 c-85 -18 -69 -131 18 -132 32 0 77 39 77 68 0 19 -34 56
-60 64 -8 2 -24 2 -35 0z"/>
<path d="M2324 2067 c-2 -7 -3 -134 -2 -282 l3 -270 55 0 55 0 0 280 0 280
-53 2 c-33 1 -55 -3 -58 -10z"/>
<path d="M3632 1917 c-52 -16 -116 -85 -131 -139 -49 -176 142 -333 306 -252
41 21 43 21 49 2 5 -16 14 -19 62 -16 l57 3 0 200 0 200 -55 3 c-41 2 -57 -1
-66 -13 -10 -14 -16 -13 -55 5 -48 21 -114 24 -167 7z m194 -119 c55 -55 37
-155 -33 -185 -75 -31 -160 8 -179 82 -9 38 15 94 50 116 45 29 128 22 162
-13z"/>
<path d="M2590 1908 c1 -7 45 -98 98 -203 l97 -190 37 0 37 0 100 203 100 202
-62 0 -63 0 -55 -117 -56 -118 -59 118 -59 117 -57 0 c-40 0 -58 -4 -58 -12z"/>
<path d="M3202 1718 l3 -203 55 0 55 0 3 203 2 202 -60 0 -60 0 2 -202z"/>
<path d="M1095 855 l-110 -12 73 -1 c39 -1 72 -5 72 -8 0 -3 -31 -73 -70 -155
-38 -83 -70 -154 -70 -158 0 -9 -69 -23 -80 -16 -4 3 -16 34 -25 70 -10 36
-20 63 -22 61 -8 -8 32 -139 45 -143 10 -5 431 64 440 72 1 1 -22 69 -51 151
-43 118 -58 149 -73 150 -10 1 -68 -4 -129 -11z"/>
<path d="M903 833 c15 -2 39 -2 55 0 15 2 2 4 -28 4 -30 0 -43 -2 -27 -4z"/>
<path d="M811 813 c0 -10 5 -27 10 -38 7 -15 8 -13 3 12 -4 27 -2 32 18 36 20
4 20 4 -4 6 -21 1 -28 -4 -27 -16z"/>
<path d="M836 720 c4 -19 11 -44 15 -55 6 -14 7 -9 3 15 -4 19 -11 44 -15 55
-6 14 -7 9 -3 -15z"/>
<path d="M2370 630 c-27 -27 -25 -56 5 -86 40 -40 95 -13 95 46 0 54 -62 78
-100 40z"/>
<path d="M2621 623 c-47 -59 32 -133 85 -79 36 35 9 106 -41 106 -14 0 -32
-11 -44 -27z"/>
<path d="M2921 623 c-47 -59 32 -133 85 -79 36 35 9 106 -41 106 -14 0 -32
-11 -44 -27z"/>
<path d="M3211 623 c-33 -41 -8 -95 44 -95 30 0 50 16 59 48 9 28 -28 74 -59
74 -14 0 -32 -11 -44 -27z"/>
<path d="M3761 623 c-47 -59 32 -133 85 -79 36 35 9 106 -41 106 -14 0 -32
-11 -44 -27z"/>
<path d="M2599 329 c-27 -27 -21 -67 14 -92 l27 -21 28 21 c33 24 39 56 18 89
-20 30 -58 32 -87 3z"/>
<path d="M2405 328 c-15 -22 -15 -23 15 -26 16 -2 45 -2 63 0 l32 3 -22 23
c-13 12 -34 22 -47 22 -14 0 -32 -10 -41 -22z"/>
<path d="M3169 329 c-27 -27 -21 -67 14 -92 l27 -21 28 21 c33 24 39 56 18 89
-20 30 -58 32 -87 3z"/>
<path d="M3689 329 c-27 -27 -21 -67 14 -92 l27 -21 28 21 c33 24 39 56 18 89
-20 30 -58 32 -87 3z"/>
</g>
</svg>
