<?xml version="1.0" standalone="no"?>
<!DOCTYPE svg PUBLIC "-//W3C//DTD SVG 20010904//EN"
 "http://www.w3.org/TR/2001/REC-SVG-20010904/DTD/svg10.dtd">
<svg version="1.0" xmlns="http://www.w3.org/2000/svg"
 width="750.000000pt" height="450.000000pt" viewBox="0 0 750.000000 450.000000"
 preserveAspectRatio="xMidYMid meet">

<g transform="translate(0.000000,450.000000) scale(0.100000,-0.100000)"
fill="#000000" stroke="none">
<path d="M5235 3029 c-22 -3 -36 -7 -31 -8 5 0 4 -7 -3 -14 -7 -9 -11 -117
-11 -335 -1 -203 -5 -322 -11 -322 -5 0 -38 10 -72 21 -41 14 -90 22 -144 23
-46 0 -83 5 -83 10 0 5 -6 4 -12 -2 -7 -5 -40 -13 -73 -17 -71 -8 -128 -33
-120 -54 4 -10 2 -11 -8 -3 -10 8 -22 3 -50 -22 -20 -18 -37 -38 -37 -44 0 -6
-6 -15 -12 -19 -20 -13 -58 -90 -58 -117 0 -29 -17 -35 -27 -9 -9 23 -35 53
-123 144 -80 81 -129 112 -205 129 -64 14 -277 15 -303 1 -11 -6 -31 -11 -44
-11 -13 0 -39 -11 -58 -25 -18 -13 -38 -22 -43 -18 -6 3 -7 1 -3 -5 4 -7 1
-12 -7 -12 -8 0 -28 -15 -45 -34 -17 -19 -32 -32 -35 -30 -3 3 -13 -13 -23
-35 -10 -23 -21 -41 -25 -41 -4 0 -5 -9 -2 -20 4 -15 2 -19 -10 -15 -11 5 -13
0 -10 -20 4 -20 2 -24 -11 -19 -9 3 -13 10 -10 15 6 10 -16 36 -124 144 -110
111 -162 130 -375 139 -43 2 -80 0 -82 -5 -3 -4 -14 -5 -25 -2 -10 3 -32 -4
-49 -16 -21 -16 -31 -18 -35 -9 -3 10 -9 8 -19 -4 -8 -10 -21 -18 -30 -18 -21
0 -31 -17 -15 -24 7 -3 3 -3 -9 0 -15 3 -23 1 -23 -7 0 -7 -3 -9 -7 -6 -9 9
-43 -22 -43 -40 0 -7 -10 -13 -22 -13 -19 0 -20 -2 -8 -10 13 -9 13 -10 0 -10
-22 0 -37 -29 -38 -80 -2 -57 -17 -72 -26 -25 -4 19 -11 33 -17 30 -5 -4 -9 1
-9 10 0 8 -22 38 -50 66 -27 28 -50 53 -50 57 0 15 -56 53 -109 74 -49 20 -73
22 -196 21 -147 -1 -232 -12 -244 -32 -10 -16 -81 -27 -81 -12 0 6 -7 11 -17
11 -22 0 -143 143 -143 170 0 6 150 118 175 130 47 24 145 95 135 98 -6 2 -62
-1 -124 -7 -61 -7 -176 -18 -256 -27 -216 -22 -371 -44 -405 -56 -16 -6 -65
-31 -108 -55 -42 -24 -99 -55 -125 -70 -26 -14 -61 -37 -78 -50 -17 -12 -34
-23 -38 -23 -4 0 -22 -10 -39 -23 -18 -12 -41 -27 -52 -34 -105 -63 -145 -89
-145 -96 0 -4 42 -6 93 -5 90 3 92 2 95 -20 2 -13 -4 -32 -12 -41 -13 -15 -14
-24 -6 -46 6 -16 10 -79 9 -139 -7 -386 6 -595 36 -596 19 -2 24 65 24 300 0
168 -4 251 -14 290 -8 30 -14 101 -14 157 l0 102 52 5 c89 10 186 13 196 6 7
-4 8 -17 1 -40 -6 -19 -10 -63 -10 -97 0 -61 1 -63 26 -63 14 0 38 -7 52 -16
l27 -15 -3 -282 c-3 -275 6 -396 29 -382 5 4 15 3 21 -1 7 -5 63 -8 125 -9 94
0 113 3 114 15 0 10 2 11 6 3 19 -48 24 14 23 285 -1 163 1 304 5 312 3 8 23
27 43 42 20 15 49 37 64 49 30 24 61 21 99 -10 l24 -19 6 -304 c4 -166 10
-315 14 -330 11 -42 17 -42 293 -38 10 0 12 64 12 306 -1 371 -3 363 103 410
29 13 41 14 50 5 6 -6 18 -11 27 -11 9 0 25 -9 36 -21 17 -19 19 -46 25 -337
3 -174 9 -324 13 -333 6 -14 27 -17 127 -18 66 -1 125 -4 132 -6 31 -12 37 11
38 138 0 89 4 125 11 120 8 -4 9 0 5 11 -4 10 -3 15 3 11 6 -3 10 -14 10 -24
0 -45 179 -210 231 -214 10 -1 15 -5 13 -9 -6 -10 37 -27 91 -36 79 -13 285
-6 285 11 0 4 7 7 17 7 30 0 125 55 134 78 5 12 15 22 22 22 19 0 85 76 104
120 3 8 12 31 20 50 11 27 16 32 23 20 5 -8 10 -28 10 -43 0 -21 18 -46 73
-102 40 -41 78 -75 85 -75 7 0 12 -4 12 -8 0 -4 12 -13 28 -20 15 -7 43 -21
62 -32 19 -10 43 -16 54 -13 11 3 16 1 12 -5 -9 -15 114 -26 198 -18 39 4 79
7 89 7 9 0 15 4 12 10 -4 5 5 9 19 9 13 0 31 6 38 13 7 6 29 20 49 30 71 36
154 131 184 209 20 54 30 54 38 3 5 -32 38 -75 122 -158 27 -27 112 -80 155
-97 36 -15 197 -20 255 -9 17 3 56 20 89 37 63 34 79 34 70 -3 -3 -12 -1 -26
5 -29 6 -4 11 -4 11 1 0 4 58 7 130 6 l130 -2 2 782 c2 430 0 786 -4 791 -9
12 -209 23 -263 15z m-4550 -689 c3 -5 1 -10 -4 -10 -6 0 -11 5 -11 10 0 6 2
10 4 10 3 0 8 -4 11 -10z m3155 -52 c0 -6 -6 -5 -15 2 -8 7 -15 14 -15 16 0 2
7 1 15 -2 8 -4 15 -11 15 -16z m-2415 -139 c4 -17 4 -33 1 -36 -3 -4 3 -12 14
-20 11 -8 20 -19 20 -25 0 -7 -7 -3 -15 8 -13 16 -14 16 -9 2 5 -13 1 -18 -14
-18 -12 0 -24 -4 -27 -10 -8 -12 -35 -13 -35 -1 0 5 9 11 21 14 13 4 18 10 14
17 -4 7 -1 17 6 22 11 8 10 9 -3 4 -23 -7 -28 23 -9 51 21 30 28 29 36 -8z
m3679 -13 c79 -55 77 -52 84 -188 5 -93 4 -128 -5 -137 -7 -6 -10 -18 -7 -26
4 -9 0 -15 -10 -15 -8 0 -21 -11 -28 -24 -7 -14 -17 -26 -23 -27 -5 -1 -33
-17 -60 -35 -49 -31 -52 -31 -110 -22 -109 18 -150 90 -143 250 3 76 8 101 27
132 70 112 190 153 275 92z m-1915 -24 c31 -25 37 -39 54 -116 16 -76 17 -93
6 -132 -7 -24 -17 -44 -21 -44 -4 0 -8 -8 -8 -18 0 -10 -13 -31 -30 -45 -16
-15 -30 -32 -30 -37 0 -6 -3 -9 -7 -8 -5 1 -26 -8 -49 -19 -47 -25 -112 -22
-155 8 -33 23 -69 126 -69 195 1 103 65 212 139 237 63 22 127 14 170 -21z
m886 27 c4 -6 13 -8 20 -5 7 2 18 -1 24 -7 6 -6 11 -8 11 -3 0 14 51 -48 55
-68 21 -102 26 -145 20 -182 -3 -24 -10 -44 -15 -44 -8 0 -25 -48 -22 -62 1
-5 -1 -7 -6 -5 -4 1 -16 -7 -28 -18 -33 -32 -75 -59 -99 -66 -29 -8 -125 1
-125 12 0 5 -7 9 -15 9 -8 0 -14 3 -13 8 0 4 -9 29 -21 55 -32 68 -33 214 -3
246 7 7 16 26 19 42 3 16 9 26 14 23 5 -3 9 0 9 5 0 14 70 58 101 64 44 8 68
7 74 -4z"/>
<path d="M5589 3022 c-18 -13 -19 -39 -19 -755 0 -585 3 -751 13 -786 l14 -44
139 2 c76 1 140 3 141 4 1 1 3 55 5 120 1 64 6 117 10 117 4 0 14 -15 22 -32
12 -28 87 -106 150 -156 29 -23 120 -66 146 -69 14 -2 41 -4 60 -6 19 -2 43
-7 52 -11 10 -5 37 -5 60 -2 24 4 54 7 68 7 38 1 141 29 164 45 11 8 29 14 39
14 12 0 17 5 14 14 -4 10 0 12 15 8 17 -4 20 -2 15 11 -4 11 -2 14 7 11 27
-11 147 128 161 187 9 36 -1 38 -157 40 -139 1 -178 -7 -208 -41 -10 -11 -22
-20 -27 -20 -6 0 -30 -9 -54 -19 -25 -11 -59 -18 -79 -16 -19 2 -49 4 -66 4
-19 1 -42 11 -60 28 -16 15 -32 26 -36 25 -5 -1 -8 4 -8 12 0 7 -6 26 -14 41
-29 56 -35 55 355 55 l359 0 0 48 c0 50 -25 181 -39 210 -5 9 -14 28 -20 42
-19 43 -34 62 -116 145 -79 81 -138 118 -215 136 -35 9 -200 11 -255 4 -78
-10 -140 -27 -148 -40 -4 -8 -13 -15 -19 -15 -6 0 -20 -7 -30 -17 -10 -9 -18
-11 -18 -5 0 6 6 13 13 15 6 3 7 6 2 6 -31 3 -99 -92 -109 -151 -4 -21 -10
-40 -15 -42 -12 -8 -18 146 -20 509 0 182 -1 338 -1 347 0 20 -40 27 -179 31
-65 2 -99 -2 -112 -11z m889 -869 c32 -21 44 -36 48 -62 12 -62 4 -66 -162
-69 -82 -1 -153 -7 -158 -12 -17 -17 -36 -11 -36 11 0 19 37 77 70 109 39 39
66 49 130 49 55 1 73 -3 108 -26z"/>
</g>
</svg>
