<?xml version="1.0" standalone="no"?>
<!DOCTYPE svg PUBLIC "-//W3C//DTD SVG 20010904//EN"
 "http://www.w3.org/TR/2001/REC-SVG-20010904/DTD/svg10.dtd">
<svg version="1.0" xmlns="http://www.w3.org/2000/svg"
 width="253.000000pt" height="199.000000pt" viewBox="0 0 253.000000 199.000000"
 preserveAspectRatio="xMidYMid meet">

<g transform="translate(0.000000,199.000000) scale(0.100000,-0.100000)"
fill="#000000" stroke="none">
<path d="M1455 1866 l-150 -31 -3 -48 c-3 -39 -7 -49 -25 -56 -12 -4 -131 -29
-264 -56 l-242 -48 39 -76 c38 -74 105 -260 96 -268 -2 -3 -44 -19 -93 -37
l-88 -33 -3 -103 c-1 -57 1 -107 6 -112 7 -7 361 115 414 143 23 12 241 70
246 65 2 -2 -7 -7 -20 -11 -93 -25 -632 -222 -635 -232 -12 -31 4 -40 54 -33
26 4 49 7 50 6 1 0 5 -65 9 -144 l7 -142 62 0 62 0 89 172 89 173 110 18 110
18 145 -150 145 -151 63 0 62 0 0 184 0 184 29 10 c28 10 28 11 41 136 7 70
11 128 9 130 -2 3 -89 -26 -192 -63 -103 -38 -190 -65 -192 -60 -7 11 -5 12
191 85 99 36 183 69 187 73 4 4 -28 30 -71 58 l-80 51 -6 83 c-11 140 -27 283
-32 291 -8 13 -62 7 -219 -26z m-141 -527 c42 -28 75 -53 72 -56 -4 -5 -253
-79 -297 -89 -24 -6 -26 -3 -47 74 -36 129 -40 122 87 122 l108 0 77 -51z"/>
<path d="M269 660 c-111 -17 -219 -83 -219 -135 0 -34 10 -32 51 11 54 57 103
77 196 82 81 4 83 4 113 -26 76 -77 -6 -210 -143 -228 -55 -8 -55 -8 -32 101
20 96 20 95 -20 95 -40 0 -38 2 -54 -95 -16 -98 -21 -103 -66 -82 -44 21 -45
21 -45 2 0 -13 45 -48 74 -58 5 -2 -1 -53 -13 -116 -13 -62 -21 -115 -17 -118
3 -3 21 -2 41 1 29 6 35 11 36 34 0 15 8 63 17 106 l17 80 68 12 c137 26 237
114 237 210 0 24 -5 54 -11 68 -22 48 -121 72 -230 56z"/>
<path d="M1206 511 c-15 -16 -32 -48 -37 -71 -11 -50 -91 -146 -158 -191 -51
-34 -54 -34 -75 -13 -22 21 -20 129 4 219 10 39 17 71 15 73 -1 1 -21 -4 -45
-12 -31 -11 -49 -12 -71 -4 -17 6 -57 8 -89 6 -73 -5 -118 -38 -163 -117 -38
-68 -50 -185 -23 -226 51 -78 147 -37 241 102 l43 64 4 -72 c3 -60 8 -74 27
-90 33 -27 70 -24 124 11 51 32 129 109 155 153 9 15 19 27 22 27 3 0 18 -23
34 -52 27 -48 28 -53 12 -62 -121 -73 -141 -97 -112 -140 34 -53 131 -42 186
20 24 28 30 43 30 83 0 45 3 50 39 74 21 14 42 23 45 20 3 -4 6 -25 6 -48 0
-57 34 -106 85 -123 96 -32 260 52 357 183 l30 40 -7 -113 -8 -112 31 0 c24 0
31 5 37 27 3 16 29 68 57 118 120 214 178 232 178 55 0 -45 5 -101 11 -126 33
-129 148 -74 265 126 48 82 51 90 29 90 -7 0 -35 -33 -61 -72 -65 -101 -101
-145 -123 -151 -38 -10 -45 7 -51 130 -8 151 -19 177 -79 181 -40 3 -47 0 -86
-42 -24 -24 -60 -74 -80 -110 -42 -75 -57 -89 -50 -49 10 68 14 149 6 161 -5
8 -21 12 -37 10 -25 -3 -29 -8 -32 -38 -6 -62 -130 -193 -231 -245 -18 -9 -53
-17 -78 -18 -38 -2 -48 2 -69 27 -38 43 -29 69 26 77 91 14 162 58 186 115 30
71 -7 114 -96 114 -72 0 -122 -29 -177 -101 -23 -31 -66 -72 -94 -90 -58 -37
-58 -37 -100 44 l-20 38 26 30 c30 36 33 74 6 89 -28 15 -34 13 -65 -19z m452
-33 c45 -45 -58 -157 -145 -158 -22 0 -22 1 -8 48 25 82 115 148 153 110z
m-837 -19 c48 -24 47 -25 -18 -117 -120 -167 -183 -187 -183 -57 1 107 58 195
128 195 18 0 51 -9 73 -21z m449 -261 c0 -56 -57 -95 -99 -69 -8 5 -11 16 -8
25 6 16 84 76 99 76 4 0 8 -14 8 -32z"/>
</g>
</svg>
