<?xml version="1.0" standalone="no"?>
<!DOCTYPE svg PUBLIC "-//W3C//DTD SVG 20010904//EN"
 "http://www.w3.org/TR/2001/REC-SVG-20010904/DTD/svg10.dtd">
<svg version="1.0" xmlns="http://www.w3.org/2000/svg"
 width="200.000000pt" height="71.000000pt" viewBox="0 0 200.000000 71.000000"
 preserveAspectRatio="xMidYMid meet">

<g transform="translate(0.000000,71.000000) scale(0.100000,-0.100000)"
fill="#000000" stroke="none">
<path d="M1591 634 c0 -11 3 -14 6 -6 3 7 2 16 -1 19 -3 4 -6 -2 -5 -13z"/>
<path d="M131 534 c-31 -22 -53 -77 -45 -112 10 -41 41 -70 98 -88 87 -29 106
-41 106 -73 0 -35 -28 -61 -64 -61 -33 0 -86 49 -86 79 0 16 -6 21 -25 21 -24
0 -25 -2 -25 -75 0 -73 1 -75 24 -75 13 0 26 4 28 10 2 6 20 3 46 -5 106 -37
196 46 163 148 -16 47 -28 56 -118 86 -82 28 -105 49 -87 79 30 47 114 35 133
-19 7 -22 16 -29 35 -29 25 0 26 2 26 65 0 62 -1 65 -24 65 -14 0 -28 -5 -31
-10 -4 -7 -12 -7 -25 0 -29 15 -103 12 -129 -6z"/>
<path d="M517 515 c-22 -45 -21 -55 1 -55 17 0 92 68 92 83 0 4 -17 7 -38 7
-34 0 -40 -4 -55 -35z"/>
<path d="M838 536 c-16 -8 -28 -11 -28 -5 0 5 -21 8 -47 8 -27 -1 -38 -4 -25
-6 21 -4 22 -9 22 -105 0 -91 -2 -100 -20 -105 -11 -3 -20 -14 -20 -24 0 -17
8 -19 65 -19 58 0 65 2 65 20 0 13 -7 20 -20 20 -11 0 -20 6 -21 13 -3 57 0
138 5 146 11 18 77 25 87 10 5 -8 9 -58 9 -111 l0 -98 40 0 c33 0 40 3 40 20
0 13 -7 20 -20 20 -19 0 -20 7 -20 98 0 83 -3 102 -18 115 -23 21 -58 22 -94
3z"/>
<path d="M1073 543 c31 -2 83 -2 115 0 31 2 5 3 -58 3 -63 0 -89 -1 -57 -3z"/>
<path d="M1423 543 c15 -2 39 -2 55 0 15 2 2 4 -28 4 -30 0 -43 -2 -27 -4z"/>
<path d="M1365 530 c-3 -6 1 -7 9 -4 18 7 21 14 7 14 -6 0 -13 -4 -16 -10z"/>
<path d="M1290 516 c0 -2 8 -10 18 -17 15 -13 16 -12 3 4 -13 16 -21 21 -21
13z"/>
<path d="M440 394 c-43 -39 -57 -80 -45 -141 18 -97 166 -141 254 -76 33 26
36 39 12 53 -17 9 -26 7 -50 -11 -42 -31 -99 -28 -128 6 -13 14 -23 30 -23 36
0 5 48 9 110 9 l110 0 0 30 c0 76 -61 130 -147 130 -47 0 -58 -4 -93 -36z
m154 -35 c14 -11 26 -25 26 -30 0 -5 -36 -9 -80 -9 -44 0 -80 3 -80 7 0 4 10
17 22 30 27 29 76 30 112 2z"/>
<path d="M1083 410 c-59 -36 -82 -125 -48 -190 19 -37 82 -70 133 -70 40 0
123 37 129 57 3 7 -5 17 -17 23 -16 9 -24 8 -37 -5 -19 -19 -56 -35 -83 -35
-26 0 -80 48 -80 71 0 18 8 19 110 19 l110 0 0 28 c0 93 -131 155 -217 102z
m138 -49 c16 -16 29 -34 29 -40 0 -7 -31 -11 -85 -11 -88 0 -94 4 -74 41 24
45 89 50 130 10z"/>
<path d="M1393 396 c-33 -29 -37 -40 -41 -92 -3 -50 0 -64 20 -94 51 -75 144
-82 216 -17 28 26 28 31 -1 44 -18 9 -25 7 -39 -12 -30 -40 -94 -38 -125 4
-30 41 -20 121 17 141 44 23 110 0 110 -38 0 -7 11 -12 25 -12 24 0 25 3 25
53 l0 54 -86 1 c-83 1 -86 1 -121 -32z"/>
<path d="M1693 410 c-18 -11 -33 -24 -33 -29 0 -18 40 -22 62 -7 12 9 33 16
45 16 28 0 63 -33 63 -60 0 -18 -5 -19 -59 -13 -57 5 -61 4 -90 -25 -40 -39
-40 -74 -2 -113 33 -33 84 -39 117 -14 24 19 34 19 34 0 0 -11 11 -14 45 -13
40 2 45 5 45 25 0 16 -6 23 -19 23 -17 0 -19 10 -23 96 -3 86 -5 98 -27 115
-32 26 -115 26 -158 -1z m115 -146 c29 -20 28 -38 -3 -58 -31 -20 -69 -21 -89
0 -49 48 33 100 92 58z"/>
</g>
</svg>
