<?xml version="1.0" standalone="no"?>
<!DOCTYPE svg PUBLIC "-//W3C//DTD SVG 20010904//EN"
 "http://www.w3.org/TR/2001/REC-SVG-20010904/DTD/svg10.dtd">
<svg version="1.0" xmlns="http://www.w3.org/2000/svg"
 width="129.000000pt" height="76.000000pt" viewBox="0 0 129.000000 76.000000"
 preserveAspectRatio="xMidYMid meet">

<g transform="translate(0.000000,76.000000) scale(0.100000,-0.100000)"
fill="#000000" stroke="none">
<path d="M887 753 c-4 -3 -7 -11 -7 -17 0 -6 5 -5 12 2 6 6 9 14 7 17 -3 3 -9
2 -12 -2z"/>
<path d="M145 734 c-21 -22 -15 -36 23 -54 42 -20 41 -34 -3 -26 -28 6 -34 4
-29 -8 13 -33 76 -31 89 2 7 18 -26 52 -51 52 -8 0 -14 5 -14 11 0 7 12 9 35
5 39 -8 42 -5 19 18 -20 21 -48 20 -69 0z"/>
<path d="M648 736 c-12 -11 -15 -27 -12 -54 8 -54 12 -62 28 -62 11 0 13 8 9
36 -4 25 -2 39 8 45 10 6 11 11 3 17 -6 4 -13 13 -15 21 -4 11 -8 11 -21 -3z"/>
<path d="M266 704 c-9 -8 -16 -24 -16 -34 0 -19 25 -50 40 -50 17 0 40 12 40
21 0 5 -11 7 -25 3 -15 -4 -25 -2 -25 5 0 6 14 11 31 11 27 0 30 3 23 23 -12
39 -42 48 -68 21z m44 -14 c0 -5 -7 -10 -15 -10 -8 0 -15 5 -15 10 0 6 7 10
15 10 8 0 15 -4 15 -10z"/>
<path d="M376 704 c-9 -8 -16 -24 -16 -34 0 -21 25 -50 44 -50 8 0 19 7 27 16
11 13 9 14 -14 9 -25 -7 -27 -5 -27 25 0 30 2 32 27 25 23 -5 25 -4 14 9 -17
20 -35 20 -55 0z"/>
<path d="M460 669 c0 -37 4 -49 15 -49 11 0 15 11 15 36 0 23 6 41 16 49 15
10 13 12 -15 13 -31 1 -31 0 -31 -49z"/>
<path d="M546 704 c-9 -8 -16 -24 -16 -34 0 -19 25 -50 40 -50 17 0 40 12 40
21 0 5 -11 7 -25 3 -15 -4 -25 -2 -25 5 0 6 14 11 31 11 27 0 30 3 23 23 -12
39 -42 48 -68 21z m44 -14 c0 -5 -7 -10 -15 -10 -8 0 -15 5 -15 10 0 6 7 10
15 10 8 0 15 -4 15 -10z"/>
<path d="M709 704 c-11 -13 -9 -14 17 -9 l29 7 -30 -25 c-25 -21 -28 -28 -17
-39 7 -7 26 -13 42 -14 28 -2 30 1 30 35 0 56 -40 82 -71 45z m41 -49 c0 -8
-4 -15 -10 -15 -5 0 -10 7 -10 15 0 8 5 15 10 15 6 0 10 -7 10 -15z"/>
<path d="M800 669 c0 -37 4 -49 15 -49 11 0 15 11 15 36 0 23 6 41 16 49 15
10 13 12 -15 13 -31 1 -31 0 -31 -49z"/>
<path d="M870 670 c0 -38 4 -50 15 -50 11 0 15 12 15 50 0 38 -4 50 -15 50
-11 0 -15 -12 -15 -50z"/>
<path d="M929 704 c-11 -13 -9 -14 17 -9 l29 7 -30 -25 c-25 -21 -28 -28 -17
-39 7 -7 26 -13 42 -14 28 -2 30 1 30 35 0 56 -40 82 -71 45z m41 -49 c0 -8
-4 -15 -10 -15 -5 0 -10 7 -10 15 0 8 5 15 10 15 6 0 10 -7 10 -15z"/>
<path d="M1080 674 c24 -55 25 -74 5 -74 -8 0 -15 -4 -15 -10 0 -12 20 -13 36
-2 19 11 65 132 51 132 -7 0 -19 -17 -28 -38 l-15 -37 -14 38 c-8 20 -20 37
-27 37 -9 0 -7 -13 7 -46z"/>
<path d="M68 528 c-29 -21 -34 -72 -9 -97 41 -41 95 -17 95 43 0 20 -4 40 -9
45 -18 17 -60 22 -77 9z m57 -53 c0 -25 -4 -30 -25 -30 -16 0 -26 6 -28 18 -6
30 6 49 30 45 18 -2 23 -9 23 -33z"/>
<path d="M185 524 c-9 -9 -14 -23 -11 -31 3 -8 6 -30 6 -49 0 -24 5 -34 15
-34 11 0 15 11 15 39 0 22 5 42 13 44 9 4 8 8 -3 16 -10 7 -11 11 -2 11 6 0
12 5 12 10 0 16 -27 12 -45 -6z"/>
<path d="M240 530 c0 -5 7 -10 15 -10 8 0 15 5 15 10 0 6 -7 10 -15 10 -8 0
-15 -4 -15 -10z"/>
<path d="M390 530 c0 -5 7 -10 15 -10 8 0 15 5 15 10 0 6 -7 10 -15 10 -8 0
-15 -4 -15 -10z"/>
<path d="M714 478 c31 -85 51 -85 82 0 20 51 21 62 9 62 -8 0 -15 -6 -16 -12
0 -7 -8 -31 -18 -53 l-17 -39 -19 52 c-11 29 -25 52 -32 52 -9 0 -6 -17 11
-62z"/>
<path d="M830 530 c0 -5 7 -10 15 -10 8 0 15 5 15 10 0 6 -7 10 -15 10 -8 0
-15 -4 -15 -10z"/>
<path d="M956 525 c-10 -10 -31 -18 -47 -17 -28 1 -29 -1 -29 -49 0 -37 4 -49
15 -49 11 0 15 11 15 40 0 22 5 40 10 40 6 0 13 0 18 0 4 1 9 -16 12 -37 3
-25 11 -39 22 -41 14 -3 16 3 11 33 -4 26 -2 40 8 46 10 6 11 11 3 17 -6 4
-13 13 -15 21 -4 11 -9 10 -23 -4z"/>
<path d="M1220 475 c0 -51 3 -65 15 -65 12 0 15 14 15 65 0 51 -3 65 -15 65
-12 0 -15 -14 -15 -65z"/>
<path d="M240 460 c0 -38 4 -50 15 -50 11 0 15 12 15 50 0 38 -4 50 -15 50
-11 0 -15 -12 -15 -50z"/>
<path d="M306 494 c-9 -8 -16 -24 -16 -34 0 -21 25 -50 44 -50 8 0 19 7 27 16
11 13 9 14 -14 9 -25 -7 -27 -5 -27 25 0 30 2 32 27 25 23 -5 25 -4 14 9 -17
20 -35 20 -55 0z"/>
<path d="M390 460 c0 -38 4 -50 15 -50 11 0 15 12 15 50 0 38 -4 50 -15 50
-11 0 -15 -12 -15 -50z"/>
<path d="M440 459 c0 -37 4 -49 15 -49 11 0 15 11 15 40 0 29 4 40 15 40 11 0
15 -11 15 -40 0 -29 4 -40 15 -40 11 0 15 11 15 39 0 44 -10 55 -57 58 l-33 2
0 -50z"/>
<path d="M559 494 c-11 -13 -9 -14 17 -9 l29 7 -30 -25 c-25 -21 -28 -28 -17
-39 7 -7 26 -13 42 -14 28 -2 30 1 30 35 0 56 -40 82 -71 45z m41 -49 c0 -8
-4 -15 -10 -15 -5 0 -10 7 -10 15 0 8 5 15 10 15 6 0 10 -7 10 -15z"/>
<path d="M830 460 c0 -38 4 -50 15 -50 11 0 15 12 15 50 0 38 -4 50 -15 50
-11 0 -15 -12 -15 -50z"/>
<path d="M1010 471 c0 -44 10 -55 58 -58 l32 -2 0 50 c0 37 -4 49 -15 49 -11
0 -15 -11 -15 -40 0 -29 -4 -40 -15 -40 -11 0 -15 11 -15 40 0 29 -4 40 -15
40 -11 0 -15 -11 -15 -39z"/>
<path d="M1129 494 c-11 -13 -9 -14 17 -9 l29 7 -30 -25 c-25 -21 -28 -28 -17
-39 7 -7 26 -13 42 -14 28 -2 30 1 30 35 0 56 -40 82 -71 45z m41 -49 c0 -8
-4 -15 -10 -15 -5 0 -10 7 -10 15 0 8 5 15 10 15 6 0 10 -7 10 -15z"/>
<path d="M0 330 c0 -5 9 -10 20 -10 17 0 20 -7 20 -50 0 -27 5 -50 10 -50 6 0
10 23 10 50 0 43 3 50 20 50 11 0 20 5 20 10 0 6 -22 10 -50 10 -27 0 -50 -4
-50 -10z"/>
<path d="M680 330 c0 -5 5 -10 10 -10 6 0 10 5 10 10 0 6 -4 10 -10 10 -5 0
-10 -4 -10 -10z"/>
<path d="M337 317 c-8 -20 7 -90 20 -94 9 -3 11 4 6 27 -4 21 -2 35 7 40 11 7
10 11 -3 24 -19 19 -23 20 -30 3z"/>
<path d="M717 317 c-8 -20 7 -90 20 -94 9 -3 11 4 6 27 -4 21 -2 35 7 40 11 7
10 11 -3 24 -19 19 -23 20 -30 3z"/>
<path d="M110 276 c0 -39 12 -50 53 -52 26 -2 27 1 27 42 0 24 -4 44 -10 44
-5 0 -10 -16 -10 -35 0 -28 -4 -35 -20 -35 -16 0 -20 7 -20 35 0 19 -4 35 -10
35 -5 0 -10 -15 -10 -34z"/>
<path d="M222 298 c-14 -14 2 -38 24 -38 8 0 14 -5 14 -11 0 -7 -10 -9 -27 -4
-27 6 -27 6 -10 -12 13 -14 21 -15 35 -7 24 16 21 38 -5 42 -13 2 -23 8 -23
14 0 6 11 8 27 3 23 -5 25 -4 14 9 -16 19 -33 20 -49 4z"/>
<path d="M390 264 c0 -24 5 -44 10 -44 6 0 10 16 10 35 0 19 5 35 10 35 19 0
10 16 -10 17 -17 2 -20 -4 -20 -43z"/>
<path d="M459 294 c-11 -13 -9 -14 14 -9 17 5 27 3 27 -4 0 -6 -9 -11 -19 -11
-22 0 -35 -26 -18 -37 7 -4 22 -8 35 -8 18 -1 22 4 22 30 0 49 -34 71 -61 39z
m41 -44 c0 -5 -7 -10 -15 -10 -8 0 -15 5 -15 10 0 6 7 10 15 10 8 0 15 -4 15
-10z"/>
<path d="M540 264 c0 -24 5 -44 10 -44 6 0 10 16 10 35 0 24 5 35 15 35 10 0
15 -11 15 -35 0 -19 5 -35 10 -35 6 0 10 16 10 35 0 24 5 35 15 35 10 0 15
-11 15 -35 0 -19 5 -35 10 -35 15 0 12 66 -3 78 -8 7 -18 7 -27 2 -8 -5 -19
-6 -24 -2 -6 3 -20 7 -33 8 -21 2 -23 -1 -23 -42z"/>
<path d="M680 265 c0 -25 5 -45 10 -45 6 0 10 20 10 45 0 25 -4 45 -10 45 -5
0 -10 -20 -10 -45z"/>
<path d="M786 294 c-20 -20 -20 -38 0 -59 17 -17 35 -16 41 2 3 7 -4 9 -16 6
-12 -3 -21 -1 -21 6 0 6 11 11 25 11 14 0 25 4 25 9 0 9 -27 41 -35 41 -2 0
-11 -7 -19 -16z m31 -10 c-3 -3 -12 -4 -19 -1 -8 3 -5 6 6 6 11 1 17 -2 13 -5z"/>
<path d="M872 298 c-14 -14 2 -38 24 -38 8 0 14 -5 14 -11 0 -7 -10 -9 -27 -4
-27 6 -27 6 -10 -12 13 -14 21 -15 35 -7 24 16 21 38 -5 42 -13 2 -23 8 -23
14 0 6 11 8 27 3 23 -5 25 -4 14 9 -16 19 -33 20 -49 4z"/>
<path d="M1091 296 c-8 -9 -11 -43 -9 -93 3 -77 3 -78 31 -81 34 -4 36 -33 5
-55 -19 -13 -20 -16 -6 -16 29 -1 65 20 77 45 7 15 19 24 34 24 37 0 47 19 47
91 0 89 -10 99 -99 99 -47 0 -72 -5 -80 -14z m154 -86 l0 -75 -31 -3 c-21 -2
-35 -11 -42 -25 l-11 -22 0 23 c-1 16 -7 22 -24 22 -35 0 -47 19 -47 76 0 83
2 85 84 82 l71 -3 0 -75z"/>
<path d="M1133 175 c2 -5 21 -10 42 -10 21 0 40 5 42 10 2 6 -16 10 -42 10
-26 0 -44 -4 -42 -10z"/>
<path d="M340 90 c0 -33 4 -60 10 -60 6 0 10 27 10 60 0 33 -4 60 -10 60 -6 0
-10 -27 -10 -60z"/>
<path d="M477 127 c-8 -20 7 -90 20 -94 9 -3 11 4 6 27 -4 21 -2 35 7 40 11 7
10 11 -3 24 -19 19 -23 20 -30 3z"/>
<path d="M867 127 c-8 -20 7 -90 20 -94 9 -3 11 4 6 27 -4 21 -2 35 7 40 11 7
10 11 -3 24 -19 19 -23 20 -30 3z"/>
<path d="M40 60 c0 -33 4 -60 10 -60 6 0 10 9 10 21 0 15 5 19 15 15 8 -3 21
2 30 10 29 30 13 63 -33 69 l-32 4 0 -59z m60 15 c0 -18 -5 -25 -20 -25 -15 0
-20 7 -20 25 0 18 5 25 20 25 15 0 20 -7 20 -25z"/>
<path d="M156 104 c-9 -8 -16 -22 -16 -29 0 -15 27 -45 40 -45 13 0 40 30 40
45 0 15 -27 45 -40 45 -5 0 -16 -7 -24 -16z m44 -29 c0 -18 -5 -25 -20 -25
-15 0 -20 7 -20 25 0 18 5 25 20 25 15 0 20 -7 20 -25z"/>
<path d="M240 74 c0 -24 5 -44 10 -44 6 0 10 16 10 35 0 19 5 35 10 35 19 0
10 16 -10 17 -17 2 -20 -4 -20 -43z"/>
<path d="M380 74 c0 -24 5 -44 10 -44 6 0 10 16 10 35 0 28 4 35 20 35 16 0
20 -7 20 -35 0 -19 5 -35 10 -35 14 0 12 67 -2 77 -7 4 -25 8 -40 9 -27 2 -28
-1 -28 -42z"/>
<path d="M546 104 c-20 -20 -20 -38 0 -59 17 -17 35 -16 41 2 3 7 -4 9 -16 6
-12 -3 -21 -1 -21 6 0 6 11 11 25 11 14 0 25 4 25 9 0 9 -27 41 -35 41 -2 0
-11 -7 -19 -16z m31 -10 c-3 -3 -12 -4 -19 -1 -8 3 -5 6 6 6 11 1 17 -2 13 -5z"/>
<path d="M620 74 c0 -24 5 -44 10 -44 6 0 10 16 10 35 0 19 5 35 10 35 19 0
10 16 -10 17 -17 2 -20 -4 -20 -43z"/>
<path d="M680 74 c0 -24 5 -44 10 -44 6 0 10 16 10 35 0 28 4 35 20 35 16 0
20 -7 20 -35 0 -19 5 -35 10 -35 14 0 12 67 -2 77 -7 4 -25 8 -40 9 -27 2 -28
-1 -28 -42z"/>
<path d="M796 104 c-20 -20 -20 -38 0 -59 17 -17 35 -16 41 2 3 7 -4 9 -16 6
-12 -3 -21 -1 -21 6 0 6 11 11 25 11 14 0 25 4 25 9 0 9 -27 41 -35 41 -2 0
-11 -7 -19 -16z m31 -10 c-3 -3 -12 -4 -19 -1 -8 3 -5 6 6 6 11 1 17 -2 13 -5z"/>
</g>
</svg>
